<mxfile host="Electron" agent="Mozilla/5.0 (Windows NT 10.0; Win64; x64) AppleWebKit/537.36 (KHTML, like Gecko) draw.io/24.7.17 Chrome/128.0.6613.36 Electron/32.0.1 Safari/537.36" version="24.7.17">
  <diagram name="Page-1" id="-_qc7y2070Ihiw9nzdq_">
    <mxGraphModel dx="864" dy="556" grid="1" gridSize="10" guides="1" tooltips="1" connect="1" arrows="1" fold="1" page="1" pageScale="1" pageWidth="850" pageHeight="1100" math="0" shadow="0">
      <root>
        <mxCell id="0" />
        <mxCell id="1" parent="0" />
        <mxCell id="NHxFgHOOrpzGYUB7CIGs-1" value="Logging" style="whiteSpace=wrap;html=1;align=center;fillColor=#0050ef;strokeColor=#001DBC;fontColor=#ffffff;" parent="1" vertex="1">
          <mxGeometry x="680" y="240" width="100" height="40" as="geometry" />
        </mxCell>
        <mxCell id="NHxFgHOOrpzGYUB7CIGs-2" value="AI&amp;nbsp;" style="whiteSpace=wrap;html=1;align=center;fillColor=#0050ef;fontColor=#ffffff;strokeColor=#001DBC;" parent="1" vertex="1">
          <mxGeometry x="520" y="240" width="100" height="40" as="geometry" />
        </mxCell>
        <mxCell id="NHxFgHOOrpzGYUB7CIGs-3" value="Notification" style="whiteSpace=wrap;html=1;align=center;fillColor=#0050ef;fontColor=#ffffff;strokeColor=#001DBC;" parent="1" vertex="1">
          <mxGeometry x="360" y="240" width="100" height="40" as="geometry" />
        </mxCell>
        <mxCell id="NHxFgHOOrpzGYUB7CIGs-4" value="User" style="whiteSpace=wrap;html=1;align=center;fillColor=#0050ef;fontColor=#ffffff;strokeColor=#001DBC;" parent="1" vertex="1">
          <mxGeometry x="200" y="240" width="100" height="40" as="geometry" />
        </mxCell>
        <mxCell id="NHxFgHOOrpzGYUB7CIGs-5" value="Event" style="whiteSpace=wrap;html=1;align=center;fillColor=#0050ef;fontColor=#ffffff;strokeColor=#001DBC;" parent="1" vertex="1">
          <mxGeometry x="40" y="240" width="100" height="40" as="geometry" />
        </mxCell>
        <mxCell id="NHxFgHOOrpzGYUB7CIGs-6" value="" style="endArrow=open;endFill=1;endSize=12;html=1;rounded=0;exitX=1;exitY=0.5;exitDx=0;exitDy=0;entryX=0;entryY=0.5;entryDx=0;entryDy=0;" parent="1" source="NHxFgHOOrpzGYUB7CIGs-4" target="NHxFgHOOrpzGYUB7CIGs-3" edge="1">
          <mxGeometry width="160" relative="1" as="geometry">
            <mxPoint x="270" y="310" as="sourcePoint" />
            <mxPoint x="430" y="310" as="targetPoint" />
          </mxGeometry>
        </mxCell>
        <mxCell id="NHxFgHOOrpzGYUB7CIGs-7" value="" style="endArrow=open;endFill=1;endSize=12;html=1;rounded=0;exitX=1;exitY=0.5;exitDx=0;exitDy=0;entryX=0;entryY=0.5;entryDx=0;entryDy=0;" parent="1" source="NHxFgHOOrpzGYUB7CIGs-3" target="NHxFgHOOrpzGYUB7CIGs-2" edge="1">
          <mxGeometry width="160" relative="1" as="geometry">
            <mxPoint x="425" y="210" as="sourcePoint" />
            <mxPoint x="585" y="210" as="targetPoint" />
          </mxGeometry>
        </mxCell>
        <mxCell id="NHxFgHOOrpzGYUB7CIGs-8" value="" style="endArrow=open;endFill=1;endSize=12;html=1;rounded=0;exitX=1;exitY=0.5;exitDx=0;exitDy=0;entryX=0;entryY=0.5;entryDx=0;entryDy=0;" parent="1" source="NHxFgHOOrpzGYUB7CIGs-2" target="NHxFgHOOrpzGYUB7CIGs-1" edge="1">
          <mxGeometry width="160" relative="1" as="geometry">
            <mxPoint x="550" y="310" as="sourcePoint" />
            <mxPoint x="710" y="310" as="targetPoint" />
          </mxGeometry>
        </mxCell>
        <mxCell id="NHxFgHOOrpzGYUB7CIGs-10" value="" style="endArrow=open;endFill=1;endSize=12;html=1;rounded=0;entryX=0;entryY=0.5;entryDx=0;entryDy=0;exitX=1;exitY=0.5;exitDx=0;exitDy=0;" parent="1" source="NHxFgHOOrpzGYUB7CIGs-5" target="NHxFgHOOrpzGYUB7CIGs-4" edge="1">
          <mxGeometry width="160" relative="1" as="geometry">
            <mxPoint x="120" y="220" as="sourcePoint" />
            <mxPoint x="280" y="220" as="targetPoint" />
          </mxGeometry>
        </mxCell>
      </root>
    </mxGraphModel>
  </diagram>
</mxfile>
